<svg width="186" height="49" viewBox="0 0 186 49" fill="none" xmlns="http://www.w3.org/2000/svg">
<path fill-rule="evenodd" clip-rule="evenodd" d="M22.1684 37.8875C22.1617 37.8468 39.2652 26.7356 39.2749 26.768C39.831 33.5961 36.1619 36.344 36.1537 36.356C38.4467 40.1535 37.6878 45.8656 37.6878 45.8656L32.0202 48.6119C32.0202 48.6119 35.2607 44.3786 32.4936 38.7675C32.507 38.852 26.8066 41.3208 22.1684 37.8875Z" fill="#3dc27b"/>
<path fill-rule="evenodd" clip-rule="evenodd" d="M22.7321 2.84653C23.5603 1.61589 23.8249 0.861816 23.8249 0.861816C23.8249 0.861816 32.601 4.95943 35.31 9.97248C38.8233 16.4711 36.9582 26.2973 36.9582 26.2973L36.2992 26.7211C36.5765 23.5156 36.2865 18.452 33.093 13.1924C35.7095 18.918 35.749 24.1995 35.433 27.2791L33.9965 28.2029C34.2022 25.7325 33.9451 22.6635 32.2201 19.9292C33.5574 23.5412 33.4799 26.602 33.0244 28.828L24.8633 34.0786C23.1063 32.3533 20.6038 30.6151 17.429 30.2298C20.5174 31.2968 22.5875 33.004 23.9591 34.6607L22.0828 35.868C22.0828 35.868 17.8666 31.7078 14.518 31.8473C6.93087 32.1647 5.33487 38.1898 5.33487 38.1898C5.33487 38.1898 4.54544 37.3271 3.70458 35.7624C4.94426 33.7687 7.7024 30.5639 13.0212 29.4825C8.3897 29.429 4.78995 32.3751 2.9815 34.2362C2.67512 33.4949 2.39185 32.6594 2.17194 31.7387C2.69226 30.8798 3.79925 29.711 6.15635 28.592C3.9707 28.9931 2.68257 29.8015 1.93266 30.5397C1.42426 27.3847 1.72989 23.4017 4.14737 18.8735C7.02703 13.4804 13.5765 11.4105 18.4562 7.4735C20.7753 7.83093 24.7194 9.1053 27.8115 13.5166C26.0635 9.41522 22.2341 7.28799 19.7876 6.30544C19.8636 6.2323 19.9389 6.1584 20.0134 6.0845C20.8275 5.27538 21.479 4.52433 21.9971 3.85924C24.2714 4.23251 27.1459 5.30856 29.8578 8.04734C28.0054 5.16454 25.1309 3.64509 22.7321 2.84653Z" fill="url(#paint0_linear)"/>
<path fill-rule="evenodd" clip-rule="evenodd" d="M3.25511 20.7379C6.00581 20.3172 10.4487 20.1867 15.6079 22.1096C13.8635 19.7064 11.6265 18.5338 11.6421 18.5353C23.6274 21.6353 27.737 27.9167 29.1176 31.3432L24.8633 34.0797C23.1063 32.3544 20.6039 30.6162 17.429 30.2309C20.5174 31.2979 22.5875 33.0051 23.9591 34.6618L22.0828 35.8691C22.0828 35.8691 17.8666 31.7089 14.518 31.8484C6.9309 32.1659 5.3349 38.1909 5.3349 38.1909C5.3349 38.1909 4.54548 37.3282 3.70461 35.7635C4.94429 33.7698 7.70244 30.565 13.0212 29.4836C8.38974 29.4301 4.78998 32.3762 2.98153 34.2373C2.67515 33.496 2.39189 32.6605 2.17198 31.7398C2.6923 30.8809 3.79929 29.7121 6.15638 28.5931C3.97074 28.9942 2.68261 29.8026 1.93269 30.5408C1.49511 27.8262 1.6606 24.4985 3.25511 20.7379Z" fill="##3dc27b"/>
<path fill-rule="evenodd" clip-rule="evenodd" d="M13.3147 14.4083C13.3147 14.4083 20.3458 15.4082 27.7413 25.5022C27.7741 25.5195 25.5878 19.6167 21.6287 16.4322C17.4915 13.106 13.3147 14.4083 13.3147 14.4083Z" fill="##3dc27b"/>
<path fill-rule="evenodd" clip-rule="evenodd" d="M45.4477 35.7968C44.2043 36.5237 42.6113 36.0916 41.8927 34.8338C42.6113 36.0916 42.1842 37.7031 40.9408 38.4292C42.1842 37.7031 43.7772 38.1351 44.4958 39.3929C43.7772 38.1351 44.2043 36.5237 45.4477 35.7968Z" fill="#3dc27b"/>
<path fill-rule="evenodd" clip-rule="evenodd" d="M47.4257 22.0134C45.9728 22.8625 44.113 22.358 43.2743 20.8883C44.113 22.358 43.6143 24.2394 42.1621 25.0877C43.6143 24.2394 45.4749 24.7439 46.3135 26.2135C45.4749 24.7439 45.9728 22.8625 47.4257 22.0134Z" fill="#3dc27b"/>
<path fill-rule="evenodd" clip-rule="evenodd" d="M42.0873 10.4609C40.8431 11.1871 39.2501 10.7557 38.5323 9.49719C39.2501 10.7557 38.8237 12.3672 37.5796 13.0934C38.8237 12.3672 40.4167 12.7985 41.1346 14.0571C40.4167 12.7985 40.8431 11.1871 42.0873 10.4609Z" fill="#3dc27b"/>
<path fill-rule="evenodd" clip-rule="evenodd" d="M16.0328 3.17711C15.0197 3.76905 13.7219 3.41766 13.1367 2.39212C13.7219 3.41766 13.3737 4.72974 12.3607 5.32168C13.3737 4.72974 14.6716 5.08189 15.2567 6.10667C14.6716 5.08189 15.0197 3.76905 16.0328 3.17711Z" fill="#3dc27b"/>
<path fill-rule="evenodd" clip-rule="evenodd" d="M5.33881 12.3932C4.09466 13.1201 2.50239 12.688 1.78378 11.4302C2.50239 12.688 2.07525 14.2994 0.8311 15.0256C2.07525 14.2994 3.66827 14.7315 4.38613 15.9893C3.66827 14.7315 4.09466 13.1201 5.33881 12.3932Z" fill="#3dc27b"/>
<path fill-rule="evenodd" clip-rule="evenodd" d="M12.3769 39.7913C10.8197 40.7015 8.82484 40.1608 7.92584 38.5848C8.82484 40.1608 8.29036 42.1779 6.73312 43.0881C8.29036 42.1779 10.2852 42.7186 11.1842 44.2946C10.2852 42.7186 10.8197 40.7015 12.3769 39.7913Z" fill="#3dc27b"/>
<path fill-rule="evenodd" clip-rule="evenodd" d="M21.256 40.5918C19.8986 41.385 18.1595 40.9137 17.3753 39.5398C18.1595 40.9137 17.6936 42.6722 16.3361 43.4655C17.6936 42.6722 19.4327 43.1435 20.2169 44.5174C19.4327 43.1435 19.8986 41.385 21.256 40.5918Z" fill="#3dc27b"/>
<path fill-rule="evenodd" clip-rule="evenodd" d="M29.5369 44.594C28.2927 45.3201 26.6997 44.8888 25.9818 43.6303C26.6997 44.8888 26.2733 46.5003 25.0292 47.2264C26.2733 46.5003 27.8656 46.9316 28.5842 48.1901C27.8656 46.9316 28.2927 45.3201 29.5369 44.594Z" fill="#3dc27b"/>
<path d="M64.4396 14.739C64.4396 15.5586 64.3039 16.3052 64.0311 16.9778C63.759 17.6504 63.3698 18.2265 62.8629 18.7069C62.3568 19.188 61.7455 19.5627 61.0299 19.8312C60.3143 20.1004 59.5196 20.2354 58.6452 20.2354C57.7589 20.2354 56.9613 20.1004 56.2516 19.8312C55.5427 19.5627 54.9411 19.188 54.4469 18.7069C53.9534 18.2265 53.5732 17.6504 53.3071 16.9778C53.041 16.3052 52.9083 15.5586 52.9083 14.739V6.26398H56.1375V14.4698C56.1375 14.8415 56.1852 15.1937 56.2807 15.527C56.3753 15.8595 56.5207 16.1574 56.7175 16.4205C56.9135 16.683 57.173 16.8911 57.4965 17.0449C57.8193 17.1987 58.2084 17.2756 58.6646 17.2756C59.1208 17.2756 59.5099 17.1987 59.8327 17.0449C60.1555 16.8911 60.4186 16.683 60.6214 16.4205C60.8241 16.1574 60.9695 15.8595 61.0582 15.527C61.1469 15.1937 61.1909 14.8415 61.1909 14.4698V6.26398H64.4396V14.739Z" fill="#3dc27b"/>
<path d="M75.6106 19.8696L70.1957 10.9724H70.1391L70.2151 19.8696H67.0611V6.26398H70.766L76.1615 15.1424H76.2182L76.1421 6.26398H79.2961V19.8696H75.6106Z" fill="#3dc27b"/>
<path d="M85.3372 6.26398H82.0699V19.8696H85.3372V6.26398Z" fill="#3dc27b"/>
<path d="M94.7792 19.8696H91.5305L86.4391 6.26398H90.0866L93.2026 15.9108H93.2786L96.3752 6.26398H99.966L94.7792 19.8696Z" fill="#3dc27b"/>
<path d="M101.068 19.8696V6.26398H110.111V9.05026H104.203V11.6066H109.788V14.239H104.203V17.0637H110.453V19.8696H101.068Z" fill="#3dc27b"/>
<path d="M119.8 19.8696L116.893 14.4698H115.791V19.8696H112.599V6.26398H117.729C118.375 6.26398 119.005 6.33109 119.619 6.46531C120.233 6.60029 120.784 6.82727 121.272 7.14775C121.759 7.46822 122.149 7.89126 122.441 8.41609C122.731 8.94168 122.877 9.5947 122.877 10.3767C122.877 11.2989 122.63 12.0741 122.137 12.7015C121.642 13.3296 120.959 13.7783 120.084 14.0467L123.599 19.8696H119.8ZM119.667 10.434C119.667 10.1135 119.601 9.8541 119.467 9.65578C119.334 9.45746 119.163 9.30363 118.954 9.19429C118.745 9.0857 118.511 9.0118 118.251 8.97335C117.992 8.93489 117.741 8.91604 117.501 8.91604H115.772V12.0869H117.311C117.577 12.0869 117.849 12.0643 118.128 12.0198C118.406 11.9745 118.66 11.8946 118.888 11.7792C119.116 11.6639 119.302 11.4972 119.448 11.2793C119.594 11.0621 119.667 10.7801 119.667 10.434Z" fill="#3dc27b"/>
<path d="M132.3 9.80095C132.022 9.44202 131.657 9.15698 131.208 8.94584C130.758 8.7347 130.324 8.62913 129.906 8.62913C129.691 8.62913 129.472 8.64798 129.251 8.68644C129.03 8.7249 128.83 8.7988 128.652 8.90738C128.475 9.01597 128.327 9.15698 128.206 9.33041C128.086 9.5031 128.026 9.72404 128.026 9.99324C128.026 10.224 128.073 10.4163 128.168 10.5701C128.263 10.7232 128.403 10.8582 128.586 10.9735C128.77 11.0889 128.988 11.1945 129.241 11.2902C129.495 11.3868 129.78 11.4855 130.096 11.5881C130.553 11.7419 131.027 11.9116 131.521 12.0978C132.015 12.2833 132.465 12.5299 132.87 12.8376C133.276 13.1452 133.611 13.5261 133.877 13.9808C134.143 14.4355 134.276 15.0025 134.276 15.6819C134.276 16.4632 134.134 17.1388 133.848 17.7089C133.563 18.2789 133.18 18.7502 132.699 19.1212C132.218 19.493 131.667 19.7682 131.046 19.9477C130.426 20.1272 129.786 20.2169 129.127 20.2169C128.165 20.2169 127.234 20.0472 126.335 19.7079C125.436 19.3678 124.688 18.8845 124.093 18.2571L126.221 16.0658C126.55 16.476 126.984 16.8183 127.522 17.0943C128.061 17.3695 128.596 17.5075 129.127 17.5075C129.368 17.5075 129.602 17.4819 129.83 17.4306C130.058 17.3793 130.258 17.2956 130.429 17.1803C130.6 17.0649 130.736 16.9118 130.837 16.7195C130.939 16.5272 130.989 16.2965 130.989 16.0273C130.989 15.7709 130.926 15.5537 130.799 15.3743C130.673 15.1948 130.492 15.0312 130.258 14.8841C130.023 14.7371 129.733 14.6021 129.384 14.4807C129.036 14.3585 128.64 14.2273 128.197 14.0863C127.766 13.9453 127.345 13.7794 126.933 13.5871C126.522 13.3948 126.154 13.1483 125.832 12.8466C125.508 12.5458 125.249 12.1808 125.053 11.7517C124.856 11.3227 124.758 10.8001 124.758 10.1855C124.758 9.4292 124.91 8.78221 125.214 8.24455C125.518 7.70615 125.917 7.26427 126.411 6.91815C126.905 6.57278 127.462 6.31942 128.083 6.15955C128.703 5.99894 129.33 5.91901 129.964 5.91901C130.723 5.91901 131.499 6.06002 132.291 6.34204C133.083 6.62406 133.776 7.04031 134.371 7.59078L132.3 9.80095Z" fill="#3dc27b"/>
<path d="M150.444 13.0116C150.444 14.0877 150.259 15.071 149.893 15.9615C149.525 16.8521 149.015 17.6145 148.363 18.2486C147.711 18.8828 146.935 19.3729 146.036 19.7183C145.137 20.0644 144.162 20.2379 143.11 20.2379C142.059 20.2379 141.087 20.0644 140.194 19.7183C139.301 19.3729 138.528 18.8828 137.876 18.2486C137.224 17.6145 136.714 16.8521 136.347 15.9615C135.98 15.071 135.796 14.0877 135.796 13.0116C135.796 11.9228 135.98 10.9394 136.347 10.0617C136.714 9.18398 137.224 8.43821 137.876 7.82289C138.528 7.20832 139.301 6.73401 140.194 6.40071C141.087 6.06741 142.059 5.90152 143.11 5.90152C144.162 5.90152 145.137 6.06741 146.036 6.40071C146.935 6.73401 147.711 7.20832 148.363 7.82289C149.015 8.43821 149.525 9.18398 149.893 10.0617C150.259 10.9394 150.444 11.9228 150.444 13.0116ZM146.967 13.0116C146.967 12.4227 146.872 11.8715 146.682 11.3587C146.492 10.8467 146.229 10.4078 145.893 10.0429C145.558 9.67714 145.152 9.38908 144.678 9.17795C144.203 8.96605 143.68 8.86048 143.11 8.86048C142.54 8.86048 142.021 8.96605 141.553 9.17795C141.084 9.38908 140.678 9.67714 140.337 10.0429C139.995 10.4078 139.732 10.8467 139.548 11.3587C139.365 11.8715 139.272 12.4227 139.272 13.0116C139.272 13.6269 139.368 14.1933 139.558 14.7128C139.748 15.2316 140.01 15.6765 140.346 16.0483C140.682 16.4193 141.084 16.7111 141.553 16.9222C142.021 17.1341 142.54 17.2397 143.11 17.2397C143.68 17.2397 144.2 17.1341 144.668 16.9222C145.137 16.7111 145.542 16.4193 145.884 16.0483C146.226 15.6765 146.492 15.2316 146.682 14.7128C146.872 14.1933 146.967 13.6269 146.967 13.0116Z" fill="#3dc27b"/>
<path d="M153.613 18.5092H156.273C157.299 18.5092 158.189 18.3523 158.943 18.0387C159.696 17.7242 160.323 17.308 160.823 16.7892C161.324 16.2704 161.694 15.6807 161.935 15.0209C162.175 14.3611 162.296 13.6794 162.296 12.9743C162.296 12.27 162.175 11.5876 161.935 10.9278C161.694 10.268 161.324 9.67905 160.823 9.1595C160.323 8.6407 159.696 8.22445 158.943 7.91076C158.189 7.59706 157.299 7.44022 156.273 7.44022H153.613V18.5092ZM152.245 6.17188H156.71C157.546 6.17188 158.385 6.31213 159.227 6.59415C160.07 6.87618 160.829 7.30222 161.507 7.8723C162.185 8.44238 162.732 9.15346 163.151 10.0056C163.568 10.8577 163.778 11.847 163.778 12.9743C163.778 14.1145 163.568 15.1076 163.151 15.9529C162.732 16.799 162.185 17.5063 161.507 18.0771C160.829 18.6472 160.07 19.0732 159.227 19.3545C158.385 19.6365 157.546 19.7775 156.71 19.7775H152.245V6.17188Z" fill="#3dc27b"/>
<path d="M168.28 14.9349H174.112L171.205 7.78558L168.28 14.9349ZM166.285 19.7775H164.689L170.54 6.17188H171.87L177.722 19.7775H176.126L174.644 16.2032H167.767L166.285 19.7775Z" fill="#3dc27b"/>
<path d="M54.2448 23.2183H58.9865V40.5597H67.7709V44.9875H54.2448V23.2183Z" fill="#3dc27b"/>
<path d="M75.066 23.2183H70.3242V44.9883H75.066V23.2183Z" fill="#3dc27b"/>
<path d="M79.3826 23.2183H86.556L91.511 37.4235H91.5714L96.5562 23.2183H103.7V44.9875H98.958V28.2917H98.8969L93.2434 44.9875H89.6258L84.1855 28.2917H84.1244V44.9875H79.3826V23.2183Z" fill="#3dc27b"/>
<path d="M108.076 23.2183H116.071C117.185 23.2183 118.239 23.3209 119.232 23.5252C120.225 23.7303 121.091 24.084 121.831 24.5862C122.57 25.0884 123.158 25.7648 123.594 26.6154C124.029 27.4667 124.247 28.5375 124.247 29.8292C124.247 31.0999 124.045 32.1661 123.639 33.0265C123.234 33.8876 122.677 34.5746 121.967 35.0866C121.258 35.5994 120.417 35.9628 119.445 36.1785C118.472 36.3934 117.418 36.5013 116.283 36.5013H112.818V44.9875H108.076V23.2183ZM112.818 32.4429H115.979C116.405 32.4429 116.815 32.4014 117.21 32.3192C117.606 32.2377 117.96 32.099 118.274 31.9044C118.588 31.7099 118.841 31.443 119.035 31.1051C119.227 30.7666 119.323 30.3413 119.323 29.8292C119.323 29.2758 119.196 28.8294 118.943 28.4915C118.689 28.153 118.365 27.892 117.97 27.7073C117.575 27.5225 117.134 27.4049 116.648 27.3536C116.162 27.3024 115.696 27.2767 115.25 27.2767H112.818V32.4429Z" fill="#3dc27b"/>
<path d="M127.409 23.2183H142.03V27.6455H132.151V31.7046H141.483V36.1325H132.151V40.5597H142.577V44.9875H127.409V23.2183Z" fill="#3dc27b"/>
<path d="M145.252 40.5597L156.164 27.4615H145.647V23.2183H161.908V27.4615L151.209 40.5597H162.274V44.9875H145.252V40.5597Z" fill="#3dc27b"/>
<path d="M172.609 23.2183H176.53L185.892 44.9875H180.542L178.688 40.3757H170.329L168.536 44.9875H163.307L172.609 23.2183ZM174.432 29.5525L171.818 36.3165H177.077L174.432 29.5525Z" fill="#3dc27b"/>
<defs>
<linearGradient id="paint0_linear" x1="1.72374" y1="19.5257" x2="37.4528" y2="19.5257" gradientUnits="userSpaceOnUse">
<stop stop-color="#3dc27b"/>
<stop offset="1" stop-color="#3dc27b"/>
</linearGradient>
</defs>
</svg>
