<svg width="19" height="18" viewBox="0 0 19 18" fill="none" xmlns="http://www.w3.org/2000/svg">
<path d="M16.625 8.57206C16.6277 9.52906 16.3836 10.4731 15.9125 11.3274C15.3539 12.351 14.4952 13.212 13.4326 13.8138C12.3699 14.4157 11.1453 14.7348 9.89583 14.7352C8.85094 14.7377 7.82017 14.5141 6.8875 14.0826L2.375 15.4603L3.87917 11.3274C3.40807 10.4731 3.16394 9.52906 3.16667 8.57206C3.16715 7.42771 3.51548 6.30608 4.17265 5.33281C4.82982 4.35954 5.76987 3.57306 6.8875 3.06147C7.82017 2.62999 8.85094 2.4064 9.89583 2.4089H10.2917C11.9418 2.49227 13.5003 3.13017 14.6689 4.20046C15.8375 5.27075 16.534 6.6982 16.625 8.20952V8.57206Z" stroke="#444444" stroke-width="2" stroke-linecap="round" stroke-linejoin="round"/>
</svg>
