<svg width="19" height="18" viewBox="0 0 19 18" fill="none" xmlns="http://www.w3.org/2000/svg">
<path d="M17.4167 12.8665V15.0417C17.4176 15.2436 17.3724 15.4435 17.2841 15.6285C17.1957 15.8135 17.0662 15.9796 16.9037 16.1162C16.7413 16.2527 16.5495 16.3566 16.3406 16.4213C16.1317 16.486 15.9104 16.51 15.6908 16.4918C13.2547 16.2494 10.9147 15.487 8.85875 14.2659C6.94594 13.1526 5.32422 11.6673 4.10875 9.91538C2.77081 8.0238 1.93819 5.87017 1.67833 3.62896C1.65855 3.42845 1.68457 3.22637 1.75473 3.03557C1.82489 2.84478 1.93766 2.66945 2.08585 2.52076C2.23405 2.37207 2.41443 2.25327 2.6155 2.17193C2.81657 2.09059 3.03393 2.04848 3.25375 2.04829H5.62875C6.01295 2.04482 6.38542 2.16943 6.67673 2.39889C6.96804 2.62834 7.15831 2.94698 7.21208 3.29542C7.31232 3.99154 7.49823 4.67505 7.76625 5.33289C7.87276 5.59241 7.89581 5.87446 7.83267 6.14562C7.76953 6.41677 7.62285 6.66566 7.41 6.86281L6.40458 7.78365C7.53156 9.59892 9.17261 11.1019 11.1546 12.1341L12.16 11.2133C12.3752 11.0183 12.647 10.884 12.9431 10.8261C13.2391 10.7683 13.5471 10.7894 13.8304 10.887C14.5487 11.1325 15.2949 11.3027 16.055 11.3945C16.4396 11.4442 16.7908 11.6216 17.0418 11.893C17.2929 12.1644 17.4263 12.5109 17.4167 12.8665Z" stroke="#444444" stroke-width="2" stroke-linecap="round" stroke-linejoin="round"/>
</svg>
